first trial
nRows=22
nColumns=38

# SIMM Motion File Header:
name Sujet_08_velo_100.mvnx
datacolumns 38
datarows 22
otherdata 1
range 11.6490 11.9990
endheader
time pelvis_tilt  pelvis_list  pelvis_rotation  pelvis_tx  pelvis_ty  pelvis_tz  hip_flexion_r  hip_adduction_r  hip_rotation_r  knee_angle_r  ankle_angle_r  subtalar_angle_r  mtp_angle_r  hip_flexion_l  hip_adduction_l  hip_rotation_l  knee_angle_l  ankle_angle_l  subtalar_angle_l  mtp_angle_l  lumbar_extension  lumbar_bending  lumbar_rotation  arm_flex_r  arm_add_r  arm_rot_r  elbow_flex_r  pro_sup_r  wrist_flex_r  wrist_dev_r  arm_flex_l  arm_add_l  arm_rot_l  elbow_flex_l  pro_sup_l  wrist_flex_l  wrist_dev_l
11.6490	-24.3884	2.4204	39.0189	0.0000	1.2500	-0.0000	86.5846	-0.5646	-2.0985	104.9220	-8.1818	11.4940	-0.0000	62.8536	-2.2012	-16.0113	41.0742	-21.4783	5.1279	0.0000	-13.1565	-1.9906	2.3043	89.4740	-10.5012	22.0158	0.8441	89.6437	-35.5189	-21.0999	86.6576	-10.0684	13.5590	8.4753	85.8261	-34.0759	-26.2120	
11.6660	-24.6819	2.2260	38.1902	0.0000	1.2500	-0.0000	90.1911	0.3741	-1.9716	106.8337	-5.8302	10.7333	-0.0000	59.6241	-2.5400	-16.7119	38.4447	-22.4526	4.8046	0.0000	-13.0115	-1.9818	2.5310	89.3846	-10.1710	21.6068	0.6326	90.5034	-35.5754	-21.1246	86.5460	-10.5076	13.2865	8.4835	85.4929	-34.0597	-26.5255	
11.6830	-25.0060	1.9959	37.4855	0.0000	1.2500	-0.0000	93.5700	1.3253	-1.6716	107.6819	-3.6527	9.7833	0.0000	57.0193	-2.7610	-16.9129	36.9779	-23.1232	4.3931	0.0000	-12.8441	-1.9424	2.7405	89.1973	-9.9371	20.9941	0.3747	91.4706	-35.6294	-21.2136	86.4182	-10.9142	13.1395	8.4729	85.0644	-34.0338	-26.8501	
11.6990	-25.2629	1.7041	36.9945	0.0000	1.2500	-0.0000	96.1840	2.0758	-1.1668	107.2880	-2.0603	8.9032	0.0000	55.3381	-3.0182	-17.0005	37.1057	-23.4544	4.1544	0.0000	-12.7039	-1.8497	2.8974	89.0111	-9.7621	20.5234	0.1463	92.1626	-35.7133	-21.2588	86.2494	-11.2283	13.0842	8.5337	84.6117	-33.9965	-27.0602	
11.7160	-25.4148	1.2587	36.7684	0.0000	1.2500	-0.0000	97.9269	2.5396	-0.0888	105.4664	-1.1907	7.9719	-0.0000	54.7832	-3.4336	-17.1548	39.2542	-23.2916	4.1294	-0.0000	-12.6095	-1.6511	2.9927	88.8704	-9.6373	20.4033	-0.0258	92.3337	-35.8693	-21.1998	85.9866	-11.4167	13.2069	8.7489	84.0314	-33.9387	-27.0956	
11.7330	-25.5020	0.7561	36.7585	0.0000	1.2500	-0.0000	98.8994	2.7998	1.2814	102.4384	-0.8963	7.0877	-0.0000	55.1573	-3.9121	-17.1579	43.0079	-22.7659	4.1835	0.0000	-12.5413	-1.4005	3.0341	88.7302	-9.5698	20.4252	-0.1646	92.2296	-36.0556	-21.0971	85.6891	-11.5151	13.4249	9.0356	83.4274	-33.8688	-27.0166	
11.7490	-25.5437	0.4535	36.9057	0.0000	1.2500	-0.0000	98.8820	2.8672	2.0183	98.5964	-1.1803	6.8410	-0.0000	56.1578	-4.2432	-16.8113	47.5470	-22.2969	4.3145	-0.0000	-12.4918	-1.2352	3.0110	88.5555	-9.5450	20.3091	-0.2619	92.2053	-36.1772	-21.0247	85.5018	-11.5658	13.4520	9.2334	83.1807	-33.8110	-26.8783	
11.7660	-25.5452	0.4752	37.2068	0.0000	1.2500	-0.0000	97.7042	2.7769	1.6937	93.8733	-2.2424	7.8745	-0.0000	57.7747	-4.2866	-16.0629	52.7823	-22.1625	4.5484	-0.0000	-12.4677	-1.2233	2.9020	88.3443	-9.5596	19.8033	-0.2974	92.5208	-36.1644	-21.0090	85.5440	-11.5786	13.0488	9.2643	83.5841	-33.7835	-26.6618	
11.7830	-25.4997	0.6968	37.6655	0.0000	1.2500	-0.0000	95.5461	2.5144	0.7125	88.3064	-3.9089	9.5526	-0.0000	60.0170	-4.1345	-14.9880	58.8143	-22.0993	4.8895	-0.0000	-12.4628	-1.2971	2.7290	88.0960	-9.6170	19.1602	-0.2922	92.9168	-36.0865	-21.0235	85.7002	-11.5454	12.4570	9.2077	84.3446	-33.7680	-26.3862	
11.7990	-25.4070	1.0031	38.2321	0.0000	1.2500	-0.0000	92.7194	2.0166	-0.6230	82.4021	-5.6191	10.5629	0.0000	62.6090	-3.9200	-13.5887	65.0927	-21.7443	5.3621	-0.0000	-12.4502	-1.3911	2.5456	87.7820	-9.7116	18.8569	-0.2948	92.9704	-36.0571	-21.0620	85.7581	-11.4797	12.1089	9.1365	84.9636	-33.7340	-26.1640	
11.8160	-25.2418	1.3956	38.8836	0.0000	1.2500	-0.0000	89.1718	1.2685	-2.4453	76.1569	-7.0995	10.0926	-0.0000	65.5046	-3.6348	-11.7228	71.6805	-20.8865	6.1032	-0.0000	-12.4191	-1.5083	2.3758	87.3609	-9.8199	19.2984	-0.3347	92.3138	-36.1386	-21.1335	85.6014	-11.4045	12.2274	9.0709	85.2195	-33.6603	-26.0563	
11.8330	-25.0254	1.8693	39.6400	0.0000	1.2500	-0.0000	84.9466	0.3956	-4.7147	69.5500	-8.6192	8.9535	-0.0000	68.7561	-3.1975	-9.5717	78.4746	-19.7423	7.0048	0.0000	-12.3815	-1.6467	2.1962	86.8767	-9.9620	20.0788	-0.3820	91.3151	-36.2686	-21.2287	85.3421	-11.2955	12.5881	8.9885	85.3335	-33.5686	-26.0025	
11.8490	-24.8296	2.2989	40.5186	0.0000	1.2500	-0.0000	80.4952	-0.5179	-6.8593	63.0779	-10.4005	8.2555	0.0000	72.2377	-2.6704	-7.5983	84.6870	-18.5917	7.7203	-0.0000	-12.3430	-1.7328	1.9892	86.4316	-10.1978	20.4580	-0.3922	90.6557	-36.3728	-21.3149	85.1047	-11.0927	12.9488	8.8950	85.4714	-33.4936	-25.9327	
11.8660	-24.6701	2.6392	41.5822	0.0000	1.2500	-0.0000	75.7597	-1.5423	-8.7694	56.6394	-12.7151	8.6086	-0.0000	76.0108	-2.1032	-5.9395	90.1839	-17.6094	8.2002	-0.0000	-12.3065	-1.7265	1.7358	86.0689	-10.5526	19.9485	-0.3572	90.7855	-36.4398	-21.3663	84.9451	-10.7547	13.2755	8.8090	85.6582	-33.4394	-25.8128	
11.8830	-24.5314	2.9363	42.7692	0.0000	1.2500	-0.0000	70.7820	-2.5739	-10.6303	50.3670	-15.2603	9.3500	-0.0000	80.0136	-1.4415	-4.5010	95.1249	-16.6266	8.4961	0.0000	-12.2676	-1.6681	1.4539	85.7387	-11.0017	19.0355	-0.2829	91.2546	-36.4810	-21.4095	84.8026	-10.3229	13.6004	8.7113	85.8687	-33.4016	-25.6766	
11.8990	-24.4408	3.2070	43.9129	0.0000	1.2500	-0.0000	66.1764	-3.4079	-12.2205	45.1163	-17.4142	9.7409	-0.0000	83.9310	-0.6692	-3.3622	99.1813	-15.4023	8.4046	-0.0000	-12.2210	-1.6048	1.1810	85.4052	-11.5300	18.4377	-0.1478	91.3952	-36.4575	-21.4910	84.6266	-9.8629	13.7807	8.5508	86.1939	-33.4028	-25.5559	
11.9160	-24.4212	3.4267	45.0082	0.0000	1.2500	-0.0000	61.9798	-4.0776	-13.3770	40.9829	-19.0003	9.5303	-0.0000	87.8276	0.1889	-2.6339	102.3531	-13.6791	7.7385	0.0000	-12.1565	-1.5300	0.9217	85.0186	-12.2200	18.5743	0.1084	90.8052	-36.3204	-21.6532	84.3993	-9.3563	13.6760	8.2723	86.7758	-33.4664	-25.4534	
11.9330	-24.4522	3.6243	46.0628	0.0000	1.2500	-0.0000	58.1576	-4.6665	-14.1923	37.8605	-20.2041	9.0930	0.0000	91.6361	1.0830	-2.2010	104.6457	-11.7058	6.6762	0.0000	-12.0837	-1.4500	0.6713	84.6306	-12.9921	19.0204	0.4289	89.8862	-36.1188	-21.8530	84.1419	-8.8238	13.4277	7.9328	87.4707	-33.5692	-25.3667	
11.9490	-24.4971	3.8968	46.9300	0.0000	1.2500	-0.0000	55.2372	-5.1512	-14.7394	36.3004	-20.9999	8.6315	-0.0000	94.8441	1.9656	-1.7369	105.7296	-10.0009	5.5507	-0.0000	-12.0277	-1.4301	0.4537	84.3600	-13.5849	19.2345	0.6492	89.1771	-35.9598	-22.0081	83.8652	-8.3898	13.3176	7.6482	87.9423	-33.6644	-25.3194	
11.9660	-24.5570	4.3505	47.5809	0.0000	1.2500	-0.0000	53.4237	-5.6191	-15.0181	36.5904	-21.3067	8.0676	0.0000	97.4138	2.8659	-0.9007	105.4060	-8.7439	4.2370	0.0000	-11.9933	-1.5180	0.2670	84.2569	-13.8807	18.8991	0.6703	88.9596	-35.8967	-22.0957	83.5321	-8.0986	13.5338	7.4576	87.9890	-33.7328	-25.3405	
11.9830	-24.6302	4.8793	48.0449	0.0000	1.2500	-0.0000	52.5215	-6.0891	-14.9626	38.4501	-21.2233	7.4008	-0.0000	99.3832	3.7344	0.0497	103.8697	-7.7581	2.8522	0.0000	-11.9762	-1.6647	0.1136	84.2763	-13.9958	18.3403	0.5867	88.9516	-35.8759	-22.1388	83.1824	-7.9040	13.8905	7.3212	87.8145	-33.7934	-25.4009	
11.9990	-24.6775	5.2604	48.2600	0.0000	1.2500	-0.0000	52.4629	-6.4312	-14.5258	41.5938	-21.0153	6.8957	0.0000	100.3556	4.3985	0.5925	101.3756	-7.0201	2.0716	-0.0000	-11.9870	-1.7908	0.0235	84.3916	-14.0168	17.9875	0.5168	88.8470	-35.8433	-22.1232	82.9402	-7.7928	14.1078	7.2342	87.6911	-33.8559	-25.4363	
